<?xml version="1.0" encoding="UTF-8"?>
<!DOCTYPE svg PUBLIC "-//W3C//DTD SVG 1.1//EN"
        "http://www.w3.org/Graphics/SVG/1.1/DTD/svg11.dtd">
<svg
  xmlns="http://www.w3.org/2000/svg"
  xmlns:xlink="http://www.w3.org/1999/xlink"
  version="1.1"
  width="128pt"
  height="128pt"
  viewBox="0 0 128 128"
  >
  <rect
    x="0"
    y="0"
    width="128"
    height="128"
    stroke="none"
    fill="#FFFFFF"
    fill-opacity="1.000000"
    />
  <g
    transform="matrix(1 0 0 -1 0 128)"
    >
    <polyline
      stroke-width="1.000000e+01"
      stroke="#0000FF"
      stroke-opacity="1.000000"
      fill="none"
      points="20.48,17.46 21.44,17.46 22.39,17.47 23.35,17.50 24.31,17.53 25.26,17.57 26.22,17.63 27.18,17.69 28.13,17.76 29.09,17.84 
      30.05,17.93 31.01,18.03 31.96,18.14 32.92,18.26 33.88,18.39 34.83,18.53 35.79,18.67 36.74,18.83 37.70,18.99 38.66,19.17 
      39.61,19.35 40.57,19.55 41.53,19.76 42.48,19.97 43.44,20.19 44.40,20.42 45.35,20.67 46.31,20.92 47.27,21.18 48.22,21.45 
      49.18,21.73 50.14,22.02 51.09,22.32 52.05,22.63 53.01,22.95 53.96,23.27 54.92,23.61 55.88,23.96 56.83,24.31 57.79,24.68 
      58.75,25.05 59.70,25.44 60.66,25.83 61.62,26.23 62.57,26.65 63.53,27.07 64.49,27.51 65.45,27.95 66.40,28.40 67.36,28.86 
      68.32,29.33 69.27,29.81 70.23,30.30 71.19,30.80 72.14,31.30 73.10,31.82 74.06,32.35 75.01,32.89 75.97,33.43 76.93,33.98 
      77.89,34.55 78.84,35.13 79.80,35.71 80.76,36.30 81.71,36.91 82.67,37.52 83.63,38.14 84.58,38.77 85.54,39.42 86.49,40.06 
      87.45,40.72 88.41,41.40 89.36,42.07 90.32,42.76 91.28,43.46 92.23,44.17 93.19,44.89 94.15,45.61 95.10,46.35 96.06,47.09 
      97.02,47.85 97.97,48.61 98.93,49.39 99.89,50.17 100.84,50.96 101.80,51.77 102.76,52.58 103.71,53.40 104.67,54.23 105.63,55.07 
      106.58,55.92 107.54,56.78 108.50,57.65 109.45,58.53 110.41,59.42 111.37,60.31 112.32,61.22 113.28,62.14 114.24,63.06 115.20,64.00 
      "/>
    <polyline
      stroke-width="1.000000e+01"
      stroke="#FF0000"
      stroke-opacity="1.000000"
      fill="none"
      points="20.48,17.46 21.44,18.40 22.39,19.34 23.35,20.28 24.31,21.22 25.26,22.16 26.22,23.10 27.18,24.04 28.13,24.98 29.09,25.92 
      30.05,26.86 31.01,27.80 31.96,28.74 32.92,29.68 33.88,30.62 34.83,31.56 35.79,32.50 36.74,33.44 37.70,34.38 38.66,35.32 
      39.61,36.26 40.57,37.20 41.53,38.14 42.48,39.08 43.44,40.02 44.40,40.96 45.35,41.90 46.31,42.84 47.27,43.78 48.22,44.72 
      49.18,45.66 50.14,46.60 51.09,47.54 52.05,48.48 53.01,49.43 53.96,50.36 54.92,51.31 55.88,52.24 56.83,53.19 57.79,54.13 
      58.75,55.07 59.70,56.01 60.66,56.95 61.62,57.89 62.57,58.83 63.53,59.77 64.49,60.71 65.45,61.65 66.40,62.59 67.36,63.53 
      68.32,64.47 69.27,65.41 70.23,66.35 71.19,67.29 72.14,68.23 73.10,69.17 74.06,70.11 75.01,71.05 75.97,71.99 76.93,72.93 
      77.89,73.87 78.84,74.81 79.80,75.75 80.76,76.69 81.71,77.63 82.67,78.57 83.63,79.51 84.58,80.45 85.54,81.40 86.49,82.33 
      87.45,83.28 88.41,84.21 89.36,85.16 90.32,86.09 91.28,87.04 92.23,87.97 93.19,88.92 94.15,89.85 95.10,90.80 96.06,91.73 
      97.02,92.68 97.97,93.61 98.93,94.56 99.89,95.49 100.84,96.44 101.80,97.38 102.76,98.32 103.71,99.26 104.67,100.20 105.63,101.14 
      106.58,102.08 107.54,103.02 108.50,103.96 109.45,104.90 110.41,105.84 111.37,106.78 112.32,107.72 113.28,108.66 114.24,109.60 115.20,110.54 
      "/>
    <polyline
      stroke-width="1.000000e+01"
      stroke="#00FFFF"
      stroke-opacity="1.000000"
      fill="none"
      points="20.48,110.54 21.44,110.45 22.39,110.17 23.35,109.70 24.31,109.05 25.26,108.22 26.22,107.21 27.18,106.02 28.13,104.67 29.09,103.15 
      30.05,101.48 31.01,99.65 31.96,97.68 32.92,95.58 33.88,93.34 34.83,90.99 35.79,88.54 36.74,85.98 37.70,83.33 38.66,80.61 
      39.61,77.82 40.57,74.97 41.53,72.08 42.48,69.16 43.44,66.21 44.40,63.26 45.35,60.31 46.31,57.38 47.27,54.47 48.22,51.59 
      49.18,48.78 50.14,46.02 51.09,43.33 52.05,40.73 53.01,38.22 53.96,35.81 54.92,33.52 55.88,31.35 56.83,29.31 57.79,27.41 
      58.75,25.66 59.70,24.07 60.66,22.63 61.62,21.36 62.57,20.26 63.53,19.34 64.49,18.60 65.45,18.04 66.40,17.67 67.36,17.48 
      68.32,17.48 69.27,17.67 70.23,18.04 71.19,18.60 72.14,19.34 73.10,20.26 74.06,21.36 75.01,22.63 75.97,24.07 76.93,25.66 
      77.89,27.41 78.84,29.31 79.80,31.35 80.76,33.52 81.71,35.81 82.67,38.22 83.63,40.73 84.58,43.33 85.54,46.02 86.49,48.78 
      87.45,51.59 88.41,54.47 89.36,57.38 90.32,60.31 91.28,63.26 92.23,66.21 93.19,69.16 94.15,72.08 95.10,74.97 96.06,77.82 
      97.02,80.61 97.97,83.33 98.93,85.98 99.89,88.54 100.84,90.99 101.80,93.34 102.76,95.58 103.71,97.68 104.67,99.65 105.63,101.48 
      106.58,103.15 107.54,104.67 108.50,106.02 109.45,107.21 110.41,108.22 111.37,109.05 112.32,109.70 113.28,110.17 114.24,110.45 115.20,110.54 
      "/>
    <polyline
      stroke-width="5.000000e+00"
      stroke="#000000"
      stroke-opacity="1.000000"
      fill="none"
      points="20.48,12.80 115.20,12.80"
      />
    <polyline
      stroke-width="5.000000e+00"
      stroke="#000000"
      stroke-opacity="1.000000"
      fill="none"
      points="20.48,12.80 20.48,14.72"
      />
    <polyline
      stroke-width="5.000000e+00"
      stroke="#000000"
      stroke-opacity="1.000000"
      fill="none"
      points="25.21,12.80 25.21,13.76"
      />
    <polyline
      stroke-width="5.000000e+00"
      stroke="#000000"
      stroke-opacity="1.000000"
      fill="none"
      points="29.95,12.80 29.95,13.76"
      />
    <polyline
      stroke-width="5.000000e+00"
      stroke="#000000"
      stroke-opacity="1.000000"
      fill="none"
      points="34.69,12.80 34.69,13.76"
      />
    <polyline
      stroke-width="5.000000e+00"
      stroke="#000000"
      stroke-opacity="1.000000"
      fill="none"
      points="39.42,12.80 39.42,14.72"
      />
    <polyline
      stroke-width="5.000000e+00"
      stroke="#000000"
      stroke-opacity="1.000000"
      fill="none"
      points="44.16,12.80 44.16,13.76"
      />
    <polyline
      stroke-width="5.000000e+00"
      stroke="#000000"
      stroke-opacity="1.000000"
      fill="none"
      points="48.90,12.80 48.90,13.76"
      />
    <polyline
      stroke-width="5.000000e+00"
      stroke="#000000"
      stroke-opacity="1.000000"
      fill="none"
      points="53.63,12.80 53.63,13.76"
      />
    <polyline
      stroke-width="5.000000e+00"
      stroke="#000000"
      stroke-opacity="1.000000"
      fill="none"
      points="58.36,12.80 58.36,14.72"
      />
    <polyline
      stroke-width="5.000000e+00"
      stroke="#000000"
      stroke-opacity="1.000000"
      fill="none"
      points="63.10,12.80 63.10,13.76"
      />
    <polyline
      stroke-width="5.000000e+00"
      stroke="#000000"
      stroke-opacity="1.000000"
      fill="none"
      points="67.84,12.80 67.84,13.76"
      />
    <polyline
      stroke-width="5.000000e+00"
      stroke="#000000"
      stroke-opacity="1.000000"
      fill="none"
      points="72.57,12.80 72.57,13.76"
      />
    <polyline
      stroke-width="5.000000e+00"
      stroke="#000000"
      stroke-opacity="1.000000"
      fill="none"
      points="77.31,12.80 77.31,14.72"
      />
    <polyline
      stroke-width="5.000000e+00"
      stroke="#000000"
      stroke-opacity="1.000000"
      fill="none"
      points="82.05,12.80 82.05,13.76"
      />
    <polyline
      stroke-width="5.000000e+00"
      stroke="#000000"
      stroke-opacity="1.000000"
      fill="none"
      points="86.78,12.80 86.78,13.76"
      />
    <polyline
      stroke-width="5.000000e+00"
      stroke="#000000"
      stroke-opacity="1.000000"
      fill="none"
      points="91.52,12.80 91.52,13.76"
      />
    <polyline
      stroke-width="5.000000e+00"
      stroke="#000000"
      stroke-opacity="1.000000"
      fill="none"
      points="96.25,12.80 96.25,14.72"
      />
    <polyline
      stroke-width="5.000000e+00"
      stroke="#000000"
      stroke-opacity="1.000000"
      fill="none"
      points="100.99,12.80 100.99,13.76"
      />
    <polyline
      stroke-width="5.000000e+00"
      stroke="#000000"
      stroke-opacity="1.000000"
      fill="none"
      points="105.72,12.80 105.72,13.76"
      />
    <polyline
      stroke-width="5.000000e+00"
      stroke="#000000"
      stroke-opacity="1.000000"
      fill="none"
      points="110.46,12.80 110.46,13.76"
      />
    <polyline
      stroke-width="5.000000e+00"
      stroke="#000000"
      stroke-opacity="1.000000"
      fill="none"
      points="115.20,12.80 115.20,14.72"
      />
    <polyline
      stroke-width="5.000000e+00"
      stroke="#000000"
      stroke-opacity="1.000000"
      fill="none"
      points="115.20,12.80 115.20,115.20"
      />
    <polyline
      stroke-width="5.000000e+00"
      stroke="#000000"
      stroke-opacity="1.000000"
      fill="none"
      points="114.24,12.80 115.20,12.80"
      />
    <polyline
      stroke-width="5.000000e+00"
      stroke="#000000"
      stroke-opacity="1.000000"
      fill="none"
      points="113.28,17.46 115.20,17.46"
      />
    <polyline
      stroke-width="5.000000e+00"
      stroke="#000000"
      stroke-opacity="1.000000"
      fill="none"
      points="114.24,22.11 115.20,22.11"
      />
    <polyline
      stroke-width="5.000000e+00"
      stroke="#000000"
      stroke-opacity="1.000000"
      fill="none"
      points="114.24,26.77 115.20,26.77"
      />
    <polyline
      stroke-width="5.000000e+00"
      stroke="#000000"
      stroke-opacity="1.000000"
      fill="none"
      points="114.24,31.42 115.20,31.42"
      />
    <polyline
      stroke-width="5.000000e+00"
      stroke="#000000"
      stroke-opacity="1.000000"
      fill="none"
      points="114.24,36.07 115.20,36.07"
      />
    <polyline
      stroke-width="5.000000e+00"
      stroke="#000000"
      stroke-opacity="1.000000"
      fill="none"
      points="113.28,40.73 115.20,40.73"
      />
    <polyline
      stroke-width="5.000000e+00"
      stroke="#000000"
      stroke-opacity="1.000000"
      fill="none"
      points="114.24,45.38 115.20,45.38"
      />
    <polyline
      stroke-width="5.000000e+00"
      stroke="#000000"
      stroke-opacity="1.000000"
      fill="none"
      points="114.24,50.04 115.20,50.04"
      />
    <polyline
      stroke-width="5.000000e+00"
      stroke="#000000"
      stroke-opacity="1.000000"
      fill="none"
      points="114.24,54.69 115.20,54.69"
      />
    <polyline
      stroke-width="5.000000e+00"
      stroke="#000000"
      stroke-opacity="1.000000"
      fill="none"
      points="114.24,59.34 115.20,59.34"
      />
    <polyline
      stroke-width="5.000000e+00"
      stroke="#000000"
      stroke-opacity="1.000000"
      fill="none"
      points="113.28,64.00 115.20,64.00"
      />
    <polyline
      stroke-width="5.000000e+00"
      stroke="#000000"
      stroke-opacity="1.000000"
      fill="none"
      points="114.24,68.65 115.20,68.65"
      />
    <polyline
      stroke-width="5.000000e+00"
      stroke="#000000"
      stroke-opacity="1.000000"
      fill="none"
      points="114.24,73.31 115.20,73.31"
      />
    <polyline
      stroke-width="5.000000e+00"
      stroke="#000000"
      stroke-opacity="1.000000"
      fill="none"
      points="114.24,77.96 115.20,77.96"
      />
    <polyline
      stroke-width="5.000000e+00"
      stroke="#000000"
      stroke-opacity="1.000000"
      fill="none"
      points="114.24,82.61 115.20,82.61"
      />
    <polyline
      stroke-width="5.000000e+00"
      stroke="#000000"
      stroke-opacity="1.000000"
      fill="none"
      points="113.28,87.27 115.20,87.27"
      />
    <polyline
      stroke-width="5.000000e+00"
      stroke="#000000"
      stroke-opacity="1.000000"
      fill="none"
      points="114.24,91.92 115.20,91.92"
      />
    <polyline
      stroke-width="5.000000e+00"
      stroke="#000000"
      stroke-opacity="1.000000"
      fill="none"
      points="114.24,96.58 115.20,96.58"
      />
    <polyline
      stroke-width="5.000000e+00"
      stroke="#000000"
      stroke-opacity="1.000000"
      fill="none"
      points="114.24,101.23 115.20,101.23"
      />
    <polyline
      stroke-width="5.000000e+00"
      stroke="#000000"
      stroke-opacity="1.000000"
      fill="none"
      points="114.24,105.89 115.20,105.89"
      />
    <polyline
      stroke-width="5.000000e+00"
      stroke="#000000"
      stroke-opacity="1.000000"
      fill="none"
      points="113.28,110.54 115.20,110.54"
      />
    <polyline
      stroke-width="5.000000e+00"
      stroke="#000000"
      stroke-opacity="1.000000"
      fill="none"
      points="114.24,115.20 115.20,115.20"
      />
    <polyline
      stroke-width="5.000000e+00"
      stroke="#000000"
      stroke-opacity="1.000000"
      fill="none"
      points="115.20,115.20 20.48,115.20"
      />
    <polyline
      stroke-width="5.000000e+00"
      stroke="#000000"
      stroke-opacity="1.000000"
      fill="none"
      points="115.20,113.28 115.20,115.20"
      />
    <polyline
      stroke-width="5.000000e+00"
      stroke="#000000"
      stroke-opacity="1.000000"
      fill="none"
      points="110.46,114.24 110.46,115.20"
      />
    <polyline
      stroke-width="5.000000e+00"
      stroke="#000000"
      stroke-opacity="1.000000"
      fill="none"
      points="105.72,114.24 105.72,115.20"
      />
    <polyline
      stroke-width="5.000000e+00"
      stroke="#000000"
      stroke-opacity="1.000000"
      fill="none"
      points="100.99,114.24 100.99,115.20"
      />
    <polyline
      stroke-width="5.000000e+00"
      stroke="#000000"
      stroke-opacity="1.000000"
      fill="none"
      points="96.25,113.28 96.25,115.20"
      />
    <polyline
      stroke-width="5.000000e+00"
      stroke="#000000"
      stroke-opacity="1.000000"
      fill="none"
      points="91.52,114.24 91.52,115.20"
      />
    <polyline
      stroke-width="5.000000e+00"
      stroke="#000000"
      stroke-opacity="1.000000"
      fill="none"
      points="86.78,114.24 86.78,115.20"
      />
    <polyline
      stroke-width="5.000000e+00"
      stroke="#000000"
      stroke-opacity="1.000000"
      fill="none"
      points="82.05,114.24 82.05,115.20"
      />
    <polyline
      stroke-width="5.000000e+00"
      stroke="#000000"
      stroke-opacity="1.000000"
      fill="none"
      points="77.31,113.28 77.31,115.20"
      />
    <polyline
      stroke-width="5.000000e+00"
      stroke="#000000"
      stroke-opacity="1.000000"
      fill="none"
      points="72.57,114.24 72.57,115.20"
      />
    <polyline
      stroke-width="5.000000e+00"
      stroke="#000000"
      stroke-opacity="1.000000"
      fill="none"
      points="67.84,114.24 67.84,115.20"
      />
    <polyline
      stroke-width="5.000000e+00"
      stroke="#000000"
      stroke-opacity="1.000000"
      fill="none"
      points="63.10,114.24 63.10,115.20"
      />
    <polyline
      stroke-width="5.000000e+00"
      stroke="#000000"
      stroke-opacity="1.000000"
      fill="none"
      points="58.36,113.28 58.36,115.20"
      />
    <polyline
      stroke-width="5.000000e+00"
      stroke="#000000"
      stroke-opacity="1.000000"
      fill="none"
      points="53.63,114.24 53.63,115.20"
      />
    <polyline
      stroke-width="5.000000e+00"
      stroke="#000000"
      stroke-opacity="1.000000"
      fill="none"
      points="48.90,114.24 48.90,115.20"
      />
    <polyline
      stroke-width="5.000000e+00"
      stroke="#000000"
      stroke-opacity="1.000000"
      fill="none"
      points="44.16,114.24 44.16,115.20"
      />
    <polyline
      stroke-width="5.000000e+00"
      stroke="#000000"
      stroke-opacity="1.000000"
      fill="none"
      points="39.42,113.28 39.42,115.20"
      />
    <polyline
      stroke-width="5.000000e+00"
      stroke="#000000"
      stroke-opacity="1.000000"
      fill="none"
      points="34.69,114.24 34.69,115.20"
      />
    <polyline
      stroke-width="5.000000e+00"
      stroke="#000000"
      stroke-opacity="1.000000"
      fill="none"
      points="29.95,114.24 29.95,115.20"
      />
    <polyline
      stroke-width="5.000000e+00"
      stroke="#000000"
      stroke-opacity="1.000000"
      fill="none"
      points="25.21,114.24 25.21,115.20"
      />
    <polyline
      stroke-width="5.000000e+00"
      stroke="#000000"
      stroke-opacity="1.000000"
      fill="none"
      points="20.48,113.28 20.48,115.20"
      />
    <polyline
      stroke-width="5.000000e+00"
      stroke="#000000"
      stroke-opacity="1.000000"
      fill="none"
      points="20.48,115.20 20.48,12.80"
      />
    <polyline
      stroke-width="5.000000e+00"
      stroke="#000000"
      stroke-opacity="1.000000"
      fill="none"
      points="20.48,115.20 21.44,115.20"
      />
    <polyline
      stroke-width="5.000000e+00"
      stroke="#000000"
      stroke-opacity="1.000000"
      fill="none"
      points="20.48,110.54 22.40,110.54"
      />
    <polyline
      stroke-width="5.000000e+00"
      stroke="#000000"
      stroke-opacity="1.000000"
      fill="none"
      points="20.48,105.89 21.44,105.89"
      />
    <polyline
      stroke-width="5.000000e+00"
      stroke="#000000"
      stroke-opacity="1.000000"
      fill="none"
      points="20.48,101.23 21.44,101.23"
      />
    <polyline
      stroke-width="5.000000e+00"
      stroke="#000000"
      stroke-opacity="1.000000"
      fill="none"
      points="20.48,96.58 21.44,96.58"
      />
    <polyline
      stroke-width="5.000000e+00"
      stroke="#000000"
      stroke-opacity="1.000000"
      fill="none"
      points="20.48,91.92 21.44,91.92"
      />
    <polyline
      stroke-width="5.000000e+00"
      stroke="#000000"
      stroke-opacity="1.000000"
      fill="none"
      points="20.48,87.27 22.40,87.27"
      />
    <polyline
      stroke-width="5.000000e+00"
      stroke="#000000"
      stroke-opacity="1.000000"
      fill="none"
      points="20.48,82.61 21.44,82.61"
      />
    <polyline
      stroke-width="5.000000e+00"
      stroke="#000000"
      stroke-opacity="1.000000"
      fill="none"
      points="20.48,77.96 21.44,77.96"
      />
    <polyline
      stroke-width="5.000000e+00"
      stroke="#000000"
      stroke-opacity="1.000000"
      fill="none"
      points="20.48,73.31 21.44,73.31"
      />
    <polyline
      stroke-width="5.000000e+00"
      stroke="#000000"
      stroke-opacity="1.000000"
      fill="none"
      points="20.48,68.65 21.44,68.65"
      />
    <polyline
      stroke-width="5.000000e+00"
      stroke="#000000"
      stroke-opacity="1.000000"
      fill="none"
      points="20.48,64.00 22.40,64.00"
      />
    <polyline
      stroke-width="5.000000e+00"
      stroke="#000000"
      stroke-opacity="1.000000"
      fill="none"
      points="20.48,59.34 21.44,59.34"
      />
    <polyline
      stroke-width="5.000000e+00"
      stroke="#000000"
      stroke-opacity="1.000000"
      fill="none"
      points="20.48,54.69 21.44,54.69"
      />
    <polyline
      stroke-width="5.000000e+00"
      stroke="#000000"
      stroke-opacity="1.000000"
      fill="none"
      points="20.48,50.04 21.44,50.04"
      />
    <polyline
      stroke-width="5.000000e+00"
      stroke="#000000"
      stroke-opacity="1.000000"
      fill="none"
      points="20.48,45.38 21.44,45.38"
      />
    <polyline
      stroke-width="5.000000e+00"
      stroke="#000000"
      stroke-opacity="1.000000"
      fill="none"
      points="20.48,40.73 22.40,40.73"
      />
    <polyline
      stroke-width="5.000000e+00"
      stroke="#000000"
      stroke-opacity="1.000000"
      fill="none"
      points="20.48,36.07 21.44,36.07"
      />
    <polyline
      stroke-width="5.000000e+00"
      stroke="#000000"
      stroke-opacity="1.000000"
      fill="none"
      points="20.48,31.42 21.44,31.42"
      />
    <polyline
      stroke-width="5.000000e+00"
      stroke="#000000"
      stroke-opacity="1.000000"
      fill="none"
      points="20.48,26.77 21.44,26.77"
      />
    <polyline
      stroke-width="5.000000e+00"
      stroke="#000000"
      stroke-opacity="1.000000"
      fill="none"
      points="20.48,22.11 21.44,22.11"
      />
    <polyline
      stroke-width="5.000000e+00"
      stroke="#000000"
      stroke-opacity="1.000000"
      fill="none"
      points="20.48,17.46 22.40,17.46"
      />
    <polyline
      stroke-width="5.000000e+00"
      stroke="#000000"
      stroke-opacity="1.000000"
      fill="none"
      points="20.48,12.80 21.44,12.80"
      />
    <clipPath
      id="text-clipping0"
      >
      <polygon
        points="0.000000,0.000000 0.000000,128.000000 128.000000,128.000000 128.000000,0.000000"
        />
    </clipPath>
    <g
      clip-path="url(#text-clipping0)"
      >
      <text
        dominant-baseline="no-change"
        fill="#000000"
        fill-opacity="1.000000"
        xml:space="preserve"
        font-size="3"
        transform="matrix(1.000000 0.000000 0.000000 -1.000000 20.479167 8.958333)"
        text-anchor="middle"
        x="0.000000"
        y="1.709216"
><tspan font-family="sans-serif" font-style="normal" font-weight="normal">&#x30;&#x2e;&#x30;</tspan></text>
    </g>
    <g
      clip-path="url(#text-clipping0)"
      >
      <text
        dominant-baseline="no-change"
        fill="#000000"
        fill-opacity="1.000000"
        xml:space="preserve"
        font-size="3"
        transform="matrix(1.000000 0.000000 0.000000 -1.000000 39.427083 8.958333)"
        text-anchor="middle"
        x="0.000000"
        y="1.709216"
><tspan font-family="sans-serif" font-style="normal" font-weight="normal">&#x30;&#x2e;&#x32;</tspan></text>
    </g>
    <g
      clip-path="url(#text-clipping0)"
      >
      <text
        dominant-baseline="no-change"
        fill="#000000"
        fill-opacity="1.000000"
        xml:space="preserve"
        font-size="3"
        transform="matrix(1.000000 0.000000 0.000000 -1.000000 58.369792 8.958333)"
        text-anchor="middle"
        x="0.000000"
        y="1.709216"
><tspan font-family="sans-serif" font-style="normal" font-weight="normal">&#x30;&#x2e;&#x34;</tspan></text>
    </g>
    <g
      clip-path="url(#text-clipping0)"
      >
      <text
        dominant-baseline="no-change"
        fill="#000000"
        fill-opacity="1.000000"
        xml:space="preserve"
        font-size="3"
        transform="matrix(1.000000 0.000000 0.000000 -1.000000 77.312500 8.958333)"
        text-anchor="middle"
        x="0.000000"
        y="1.709216"
><tspan font-family="sans-serif" font-style="normal" font-weight="normal">&#x30;&#x2e;&#x36;</tspan></text>
    </g>
    <g
      clip-path="url(#text-clipping0)"
      >
      <text
        dominant-baseline="no-change"
        fill="#000000"
        fill-opacity="1.000000"
        xml:space="preserve"
        font-size="3"
        transform="matrix(1.000000 0.000000 0.000000 -1.000000 96.255208 8.958333)"
        text-anchor="middle"
        x="0.000000"
        y="1.709216"
><tspan font-family="sans-serif" font-style="normal" font-weight="normal">&#x30;&#x2e;&#x38;</tspan></text>
    </g>
    <g
      clip-path="url(#text-clipping0)"
      >
      <text
        dominant-baseline="no-change"
        fill="#000000"
        fill-opacity="1.000000"
        xml:space="preserve"
        font-size="3"
        transform="matrix(1.000000 0.000000 0.000000 -1.000000 115.197917 8.958333)"
        text-anchor="middle"
        x="0.000000"
        y="1.709216"
><tspan font-family="sans-serif" font-style="normal" font-weight="normal">&#x31;&#x2e;&#x30;</tspan></text>
    </g>
    <g
      clip-path="url(#text-clipping0)"
      >
      <text
        dominant-baseline="no-change"
        fill="#000000"
        fill-opacity="1.000000"
        xml:space="preserve"
        font-size="3"
        transform="matrix(1.000000 0.000000 0.000000 -1.000000 19.197917 17.453125)"
        text-anchor="end"
        x="0.000000"
        y="1.709216"
><tspan font-family="sans-serif" font-style="normal" font-weight="normal">&#x2d;&#x31;&#x2e;&#x30;</tspan></text>
    </g>
    <g
      clip-path="url(#text-clipping0)"
      >
      <text
        dominant-baseline="no-change"
        fill="#000000"
        fill-opacity="1.000000"
        xml:space="preserve"
        font-size="3"
        transform="matrix(1.000000 0.000000 0.000000 -1.000000 19.197917 40.729167)"
        text-anchor="end"
        x="0.000000"
        y="1.709216"
><tspan font-family="sans-serif" font-style="normal" font-weight="normal">&#x2d;&#x30;&#x2e;&#x35;</tspan></text>
    </g>
    <g
      clip-path="url(#text-clipping0)"
      >
      <text
        dominant-baseline="no-change"
        fill="#000000"
        fill-opacity="1.000000"
        xml:space="preserve"
        font-size="3"
        transform="matrix(1.000000 0.000000 0.000000 -1.000000 19.197917 64.000000)"
        text-anchor="end"
        x="0.000000"
        y="1.709216"
><tspan font-family="sans-serif" font-style="normal" font-weight="normal">&#x30;&#x2e;&#x30;</tspan></text>
    </g>
    <g
      clip-path="url(#text-clipping0)"
      >
      <text
        dominant-baseline="no-change"
        fill="#000000"
        fill-opacity="1.000000"
        xml:space="preserve"
        font-size="3"
        transform="matrix(1.000000 0.000000 0.000000 -1.000000 19.197917 87.270833)"
        text-anchor="end"
        x="0.000000"
        y="1.709216"
><tspan font-family="sans-serif" font-style="normal" font-weight="normal">&#x30;&#x2e;&#x35;</tspan></text>
    </g>
    <g
      clip-path="url(#text-clipping0)"
      >
      <text
        dominant-baseline="no-change"
        fill="#000000"
        fill-opacity="1.000000"
        xml:space="preserve"
        font-size="3"
        transform="matrix(1.000000 0.000000 0.000000 -1.000000 19.197917 110.546875)"
        text-anchor="end"
        x="0.000000"
        y="1.709216"
><tspan font-family="sans-serif" font-style="normal" font-weight="normal">&#x31;&#x2e;&#x30;</tspan></text>
    </g>
  </g>
</svg>
